<?xml version="1.0" encoding="UTF-8"?>
<svg viewBox="0 0 569.09619 561.52838" xmlns="http://www.w3.org/2000/svg">
 <path d="m298.88 0.5387-11.112 52.427c0.11025 2.457-3.4258 16.228-4.3005 18.725-1.4051 4.0117 9.1993 3.5541 13.997 2.9528 3.1406-0.39362 15.96 3.3738 19.24 3.9084 3.187 0.51951 22.64 4.2041 33.341 10.728-18.275-4.6383-53.884-10.134-55.924-9.4758-1.776 0.57296-5.3028 25.103-6.2442 29.139-1.5862 6.801-25.452 43.558-28.227 43.687-9.0664 0.42136-26.803 56.872-23.006 68.661 4.9314 15.31 16.548 30.043 15.435 26.062-1.0675-3.8208-8.085-52.621 7.1061-65.704 2.8025-3.4233 11.675-21.314 11.602-16.181-0.01948 1.3677-2.7631 8.8004-7.9933 16.823-23.558 36.134 0.64398 104.37 9.6913 102.2 2.4054-0.57586 8.2538 9.4636 23.553 16.98 22.539 11.073 29.538 12.26 32.535 12.324 8.633 0.18349 36.722-28.674 34.672-37.958-1.1252-5.0945 2.0255-10.768 1.3146-12.762-1.0889-3.0547-1.4788-18.551-0.76682-31.385 0.10327-1.8621-0.74613-3.4912-1.9171-3.5603-2.7669-0.16314-21.734 28.748-21.787 32.489-0.02261 1.5873 14.004 6.5791 13.681 7.3859-0.78807 1.9694-13.891-1.5378-15.259 0.50435-8.5001 12.686-39.926 5.0392-40.171-4.2289-0.1174-4.4341-5.9931-7.7208-8.3256-8.6542-4.1612-1.6652-4.7793-4.46-1.1502-5.0939 3.2181-0.56209 12.197-23.762 5.4773-29.468-3.004-2.551-9.9264-4.3297-9.3662-6.6824 0.71854-3.0177 1.5974-3.2842 5.2035-1.5336 3.225 1.5655 17.576 5.6604 11.886-0.10955-1.9058-1.9326 10.908-17.245 11.941-19.773 1.2796-3.1348 6.8371-8.6986 6.3537-6.3537-0.09886 0.47961-9.1072 15.243-15.72 36.862-3.8799 12.684-4.1936 16.212-6.1894 20.759-2.315 5.2749 6.3634 25.026 12.927 25.579 1.5756 0.1329 6.6027 0.74804 11.393 0.32864l8.709-0.76682 5.0939-14.186c2.7887-7.7964 8.3934-19.957 12.488-27.058 8.1309-14.099 17.164-24.385 24.155-40.97 5.6516-13.408 10.977-24.146 11.776-23.826s-2.6178 8.2892-3.8023 9.8919c-1.7568 2.3773-0.82427 2.5111 2.7068 3.911 4.7235 1.8726 14.423-22.167 10.736-26.839 0.48171-1.2038-15.56-43.278-19.006-45.517-3.3205-2.1575-1.5839-1.1928-8.9281-7.5587 0.37522 0.07675 12.027-1.9825 12.895-4.677 1.837-5.7047-7.4896-12.003-12.45-14.264-4.0419-1.8422-13.07-1.7306-7.8398-3.7352 2.3185-0.88864 22.973 6.7232 23.607 9.5306 0.74567 3.2989 11.535-34.494 10.681-38.013-1.3911-5.7311-1.1934-6.5548 1.9171-7.8874 2.7597-1.1823 20.102-38.177 20.102-38.177l-116.73 0.5387zm84.029 178.79c-0.32866 0.01243-0.91152 0.40806-1.7528 1.3693-7.6479 8.7394-8.4944 10.068-4.8748 7.504 1.884-1.3348 1.8512-0.1058-0.05477 4.7105-1.4213 3.5914-4.381 8.6373-6.3537 11.393-17.071 23.847-15.309 29.644 3.6698-1.5884 2.0893-3.4382 11.667-23.475 9.3662-23.388zm-270.64 92.353c-5.7929 1.3375-32.573 7.2746-36.927 9.4605-2.3911 1.2005-29.474 21.839-51.142 22.27-3.1319 0.06233-0.42785-10.975-3.5873-12.354-4.3222-1.8858-15.34-1.6925-20.611 0.00748l0.15423 109.03c0.00735 1.4644 10.801 0.62101 10.078 0.73517-3.3404 0.52744 17.548 0.09067 19.335-1.9978 3.4702-4.0556 1.1693-14.313 3.7794-14.161 2.3879 0.13923 42.833 14.205 48.146 15.61-0.40535 1.3679 31.038 6.3799 59.711 9.0382 15.761-0.96496 110.85-9.9422 112.2-16.79 2.4995-11.05 4.3276-10.263-3.6886-10.54-3.8058-0.13147-15.884 0.55478-21.909 0.6025-12.236 0.09693-34.241-0.77939-40.961 0.5229-2.41 0.46709-27.829-0.6488-24.102-3.742 1.4354-1.1913 36.99-1.6567 51.933-1.1894 17.638 0.55153 51.642-0.57145 61.208-0.30456 12.636 0.35255 18.4-1.6952 19.932-4.6021 1.4276-2.708 3.9615-4.6894 3.529-9.7514-1.561-3.8744-6.0582-5.1198-7.3626-5.1048-32.079 0.36822-95.107-1.1186-100.74-1.3456-4.8413-0.1952-26.317-0.5701-25.688-1.1998s34.189-1.2775 43.601-1.5747c26.109-0.82442 63.797 0.54526 70.387 0.24376 3.9888-1.0341 25.502 0.20928 25.917-7.967 0.35615-7.0253-0.45039-8.7418-8.4899-10.764-7.7352-1.946-14.178-3.4606-50.172-4.5462-23.563-0.71067-84.18-1.4968-84.581-1.8865-2.0268-1.9664 44.01-1.6074 64.699-1.7253 12.437-0.07085 59.925 4.0688 68.85 2.6258 19.76-3.1948 4.8769-14.013 0.5543-16.319-4.1973-2.1121-14.463-5.1576-20.412-6.0927-4.9811-0.78298-43.876-4.8642-50.741-5.9532-3.5012-0.55539-37.549-1.7204-38.094-2.2649s-29.079-0.22944-32.503 0.11249c-27.77 2.7733-6.0117-1.0075 2.0248-3.2392 9.8034-2.7224 27.506-6.351 30.499-17.07-1.3452-11.211-0.87166-10.906-10.855-11.46-3.9552-0.05959-26.301 0.16364-32.998 0.51439-9.1173 0.47752-25.918 3.21-30.975 3.1702zm221.95 66.271c-0.99924 0.03709-9.3139 1.8443-9.6949 7.0658-0.49625 6.8022 12.115 21.437 17.124 26.446 1.9443 1.9443 39.417 30.486 51.46 36.858 10.052 5.3191 33.135 24.773 30.37 27.538-2.6963 2.6963-31.094-11.582-37.067-12.421-4.9777-0.69875-30.717-8.8173-61.503-18.553-10.065-3.1831-13.087-0.65048-17.966 2.3552-7.2675 4.4773-12.361 11.538-5.5468 18.669 2.7554 2.8833 15.751 8.5418 22.004 10.691 9.6011 3.3002 37.775 17.379 40.908 18.642s24.139 6.1191 23.607 8.6117c-2.0019 1.3031-4.5992 3.4225-9.2901 5.1235-4.3466 1.5761-7.1447 12.453-6.8431 15.15 0.43076 3.8526 14.089 6.1532 16.881 7.6462 2.6194 1.4005 54.427 3.4696 57.969 5.4404 2.8948 1.6107 16.837 27.146 32.027 34.263-6.8356 1.4275-41.586-34.343-37.22-32.459 2.4722 1.0667-63.96-4.7575-64.738-3.8786-2.005 2.2642 9.1312 23.469 13.97 25.941 4.0758 2.0823 51.585-6.2197 57.273-6.2191 3.6636 4.1e-4 3.4964 0.59847 7.4294 0.93139s-63.368 5.4505-61.131 9.0262c4.421 7.0645 7.7512 23.973 13.351 22.445 0.71239-0.19445 62.583-17.378 67.165-15.826 6.1416 2.0802-63.126 14.331-61.946 18.052 1.0924 3.4457 6.4217 2.6004 9.4406 3.6724 1.5186 0.5392 96.395 9.9856 101.4 2.934 2.6744-3.7692 23.109-12.521 26.132-12.12 6.5625-4.3828 3.6417 6.9522 6.715 14.619l12.602 2.934-0.13891-106.12c0-3.0233-5.9138-6.9586-11.768-6.2373-7.3751-2.3244-75.297-39.182-94.356-33.922-8.9778-10.03-59.468-40.057-64.32-44.18-6.5859-5.5959-53.723-31.25-56.19-32.187-1.8502-0.70345-5.1087-1.0424-8.1065-0.93115z"/>
</svg>
